<svg width="118" height="32" viewBox="0 0 118 32" fill="none" xmlns="http://www.w3.org/2000/svg">
<path d="M22.1301 0H9.86989L0 9.86987V22.1301L9.86989 32H22.1301L32 22.1301V9.86987L22.1301 0ZM11.5663 22.2843L5.24339 15.9614L11.5663 9.63855C13.9566 7.24819 17.8892 7.24819 20.2795 9.63855L26.6024 15.9614L20.2795 22.2843C17.8892 24.6747 14.0337 24.6747 11.5663 22.2843Z" fill="white"/>
<path d="M48.125 24.5H44.1758L50.1992 7.03906H54.957L60.9688 24.5H57.0312L52.6484 11.0234H52.5078L48.125 24.5ZM47.8906 17.6328H57.2305V20.5156H47.8906V17.6328ZM62.9084 24.5L59.3459 11.3984H63.0256L65.053 20.2109H65.1702L67.2913 11.3984H70.8889L73.0334 20.1523H73.1506L75.1428 11.3984H78.8108L75.2483 24.5H71.4163L69.1663 16.2617H69.0022L66.7522 24.5H62.9084ZM83.4458 24.7461C82.6177 24.7461 81.8716 24.6016 81.2075 24.3125C80.5513 24.0156 80.0356 23.5781 79.6606 23C79.2856 22.4219 79.0981 21.7031 79.0981 20.8438C79.0981 20.1094 79.2309 19.5 79.4966 19.0156C79.7622 18.5234 80.1255 18.125 80.5864 17.8203C81.0473 17.5156 81.5708 17.2852 82.1567 17.1289C82.7427 16.9727 83.3638 16.8633 84.02 16.8008C84.7778 16.7305 85.3872 16.6602 85.8481 16.5898C86.3091 16.5195 86.645 16.4141 86.8559 16.2734C87.0747 16.125 87.1841 15.9141 87.1841 15.6406V15.582C87.1841 15.043 87.0122 14.625 86.6684 14.3281C86.3325 14.0312 85.8559 13.8828 85.2388 13.8828C84.5903 13.8828 84.0708 14.0273 83.6802 14.3164C83.2973 14.5977 83.0434 14.957 82.9184 15.3945L79.5552 15.125C79.727 14.3281 80.063 13.6406 80.563 13.0625C81.063 12.4766 81.7075 12.0273 82.4966 11.7148C83.2934 11.3945 84.2153 11.2344 85.2622 11.2344C85.9888 11.2344 86.6841 11.3203 87.3481 11.4922C88.0122 11.6641 88.602 11.9297 89.1177 12.2891C89.6411 12.6406 90.0552 13.0977 90.3598 13.6602C90.6645 14.2227 90.8169 14.8906 90.8169 15.6641V24.5H87.3598V22.6719H87.2661C87.0552 23.0859 86.7739 23.4492 86.4223 23.7617C86.0708 24.0664 85.6489 24.3086 85.1567 24.4883C84.6645 24.6602 84.0942 24.7461 83.4458 24.7461ZM84.4888 22.2383C85.02 22.2383 85.4888 22.1328 85.895 21.9219C86.3091 21.7031 86.6294 21.4141 86.8559 21.0547C87.0903 20.6875 87.2075 20.2773 87.2075 19.8242V18.4297C87.0981 18.5 86.9419 18.5664 86.7388 18.6289C86.5434 18.6914 86.3247 18.7461 86.0825 18.793C85.8403 18.8398 85.5981 18.8828 85.3559 18.9219C85.1138 18.9531 84.895 18.9844 84.6997 19.0156C84.27 19.0781 83.895 19.1797 83.5747 19.3203C83.2544 19.4531 83.0044 19.6367 82.8247 19.8711C82.6528 20.0977 82.5669 20.3828 82.5669 20.7266C82.5669 21.2188 82.7466 21.5938 83.1059 21.8516C83.4653 22.1094 83.9263 22.2383 84.4888 22.2383ZM95.9792 20.7266L95.9909 16.3789H96.5183L100.702 11.3984H104.874L99.2487 17.9961H98.3698L95.9792 20.7266ZM92.698 24.5V7.03906H96.3191V24.5H92.698ZM100.866 24.5L97.0222 18.8047L99.4362 16.2266L105.12 24.5H100.866ZM111.056 24.7578C109.712 24.7578 108.552 24.4844 107.575 23.9375C106.599 23.3906 105.849 22.6133 105.325 21.6055C104.81 20.5898 104.552 19.3906 104.552 18.0078C104.552 16.6641 104.81 15.4844 105.325 14.4688C105.849 13.4531 106.583 12.6602 107.528 12.0898C108.481 11.5195 109.599 11.2344 110.88 11.2344C111.747 11.2344 112.556 11.375 113.306 11.6562C114.056 11.9297 114.712 12.3438 115.274 12.8984C115.837 13.4453 116.274 14.1367 116.587 14.9727C116.899 15.8008 117.056 16.7734 117.056 17.8906V18.875H105.993V16.6367H115.298L113.61 17.2227C113.61 16.5586 113.509 15.9805 113.306 15.4883C113.103 14.9961 112.798 14.6172 112.392 14.3516C111.993 14.0781 111.497 13.9414 110.903 13.9414C110.31 13.9414 109.806 14.0781 109.392 14.3516C108.985 14.625 108.673 14.9961 108.454 15.4648C108.235 15.9336 108.126 16.4727 108.126 17.082V18.6641C108.126 19.375 108.251 19.9844 108.501 20.4922C108.751 20.9922 109.099 21.3789 109.544 21.6523C109.997 21.918 110.517 22.0508 111.103 22.0508C111.509 22.0508 111.876 21.9922 112.204 21.875C112.532 21.7578 112.813 21.5859 113.048 21.3594C113.29 21.1328 113.47 20.8594 113.587 20.5391L116.938 20.7617C116.774 21.5664 116.431 22.2695 115.907 22.8711C115.392 23.4648 114.724 23.9297 113.903 24.2656C113.083 24.5938 112.134 24.7578 111.056 24.7578Z" fill="white"/>
</svg>
